<svg xmlns="http://www.w3.org/2000/svg" viewBox="0 0 32 32" fill="none">
  <defs>
    <linearGradient id="g" x1="0%" y1="0%" x2="100%" y2="100%">
      <stop offset="0%" stop-color="#6366f1"/>
      <stop offset="100%" stop-color="#a78bfa"/>
    </linearGradient>
  </defs>
  <!-- Shield/hexagon shape -->
  <path d="M16 2 L28 8.5 L28 23.5 L16 30 L4 23.5 L4 8.5 Z" fill="url(#g)" opacity="0.15" stroke="url(#g)" stroke-width="1.5"/>
  <!-- Central dot -->
  <circle cx="16" cy="16" r="3.5" fill="url(#g)"/>
  <!-- Connection lines -->
  <line x1="16" y1="12.5" x2="16" y2="6" stroke="url(#g)" stroke-width="1.5" stroke-linecap="round"/>
  <line x1="16" y1="19.5" x2="16" y2="26" stroke="url(#g)" stroke-width="1.5" stroke-linecap="round"/>
  <line x1="12.5" y1="16" x2="6" y2="12" stroke="url(#g)" stroke-width="1.5" stroke-linecap="round"/>
  <line x1="19.5" y1="16" x2="26" y2="12" stroke="url(#g)" stroke-width="1.5" stroke-linecap="round"/>
  <line x1="12.5" y1="16" x2="6" y2="20" stroke="url(#g)" stroke-width="1.5" stroke-linecap="round"/>
  <line x1="19.5" y1="16" x2="26" y2="20" stroke="url(#g)" stroke-width="1.5" stroke-linecap="round"/>
  <!-- Outer dots -->
  <circle cx="16" cy="5" r="2" fill="url(#g)"/>
  <circle cx="16" cy="27" r="2" fill="url(#g)"/>
  <circle cx="5.5" cy="11.5" r="2" fill="url(#g)"/>
  <circle cx="26.5" cy="11.5" r="2" fill="url(#g)"/>
  <circle cx="5.5" cy="20.5" r="2" fill="url(#g)"/>
  <circle cx="26.5" cy="20.5" r="2" fill="url(#g)"/>
</svg>
